<svg class="svg-icon" style="width: 1em; height: 1em;vertical-align: middle;fill: currentColor;overflow: hidden;" viewBox="0 0 1024 1024" version="1.1" xmlns="http://www.w3.org/2000/svg"><path d="M512 704a192 192 0 1 0 0-384 192 192 0 0 0 0 384z m0 64a256 256 0 1 1 0-512 256 256 0 0 1 0 512zM32 480h128a32 32 0 1 1 0 64H32a32 32 0 1 1 0-64z m832 0h128a32 32 0 1 1 0 64H864a32 32 0 1 1 0-64zM480 992V864a32 32 0 1 1 64 0v128a32 32 0 1 1-64 0z m0-832V32a32 32 0 1 1 64 0v128a32 32 0 1 1-64 0z m348.8 714.027l-90.539-90.496a32 32 0 1 1 45.27-45.227l90.496 90.453a32 32 0 0 1-45.227 45.27zM240.47 285.739L149.972 195.2a32 32 0 1 1 45.227-45.227l90.539 90.496a32 32 0 1 1-45.27 45.227z m633.6-90.539l-90.54 90.539a32 32 0 1 1-45.226-45.27l90.453-90.496a32 32 0 0 1 45.227 45.227zM285.652 783.53L195.2 874.028a32 32 0 0 1-45.27-45.227l90.497-90.539a32 32 0 1 1 45.226 45.27z"  /></svg>