<?xml version="1.0" encoding="UTF-8"?>
<svg version="1.1" xmlns="http://www.w3.org/2000/svg" width="283" height="294">
<path d="M0 0 C93.39 0 186.78 0 283 0 C283 97.02 283 194.04 283 294 C189.61 294 96.22 294 0 294 C0 196.98 0 99.96 0 0 Z " fill="#F3F3F5" transform="translate(0,0)"/>
<path d="M0 0 C-0.76183594 1.32837891 -0.76183594 1.32837891 -1.5390625 2.68359375 C-6.84118881 12.1423492 -10.7428668 21.66831988 -14 32 C-14.31839844 32.98742188 -14.63679688 33.97484375 -14.96484375 34.9921875 C-24.69635182 67.62420958 -19.84253779 106.10793068 -4.125 136.0625 C14.80913838 170.80725148 44.77425155 195.81410465 82.796875 207.30615234 C102.09652883 212.82749199 121.10223555 212.33408508 141 212 C132.78149272 229.69618893 106.11998358 241.81196353 88.84912109 248.48266602 C85.27142993 249.79049148 81.65509144 250.92947113 78 252 C77.27989746 252.21172852 76.55979492 252.42345703 75.81787109 252.64160156 C64.4942448 255.79552264 53.25050701 256.36590152 41.5625 256.375 C40.54855667 256.37799103 40.54855667 256.37799103 39.51412964 256.38104248 C26.74601529 256.37677448 14.78172909 255.04493804 2.6875 250.875 C1.79305176 250.57078125 0.89860352 250.2665625 -0.02294922 249.953125 C-34.64752996 237.8045825 -62.25053166 212.88790594 -78.12548828 179.89306641 C-92.92412322 147.85827709 -94.41618137 110.67783322 -82.25 77.5 C-68.80216947 43.48957539 -43.0137204 17.40270916 -10 2 C-2.48518475 -1.24259237 -2.48518475 -1.24259237 0 0 Z " fill="#F2F2F4" transform="translate(109,21)"/>
<path d="M0 0 C0.99 0.99 0.99 0.99 2 2 C1.75439301 6.53184516 -0.55436671 9.64206296 -3.0625 13.25 C-21.20386258 40.58749527 -28.78887954 74.74581411 -22.34008789 107.12036133 C-21.91569243 109.0851905 -21.45819933 111.04277785 -21 113 C-20.7215625 114.24652344 -20.443125 115.49304688 -20.15625 116.77734375 C-15.34417448 136.54418844 -6.41899434 154.65704822 7 170 C7.84433594 170.97710937 8.68867188 171.95421875 9.55859375 172.9609375 C26.97954336 192.76728937 50.43420374 206.53831523 76 213 C77.06605469 213.29777344 78.13210937 213.59554687 79.23046875 213.90234375 C88.90017131 216.19059398 98.54928805 216.29184985 108.4375 216.3125 C109.13726959 216.31608521 109.83703918 216.31967041 110.55801392 216.32336426 C118.31172095 216.34471213 125.46547235 215.93115038 133 214 C136.03125 213.76953125 136.03125 213.76953125 138.5 213.8125 C139.75296875 213.82216797 139.75296875 213.82216797 141.03125 213.83203125 C143 214 143 214 144 215 C144.51361918 218.02262616 144.54004619 220.13160193 142.89013672 222.78466797 C141.30589829 224.74013916 139.65015773 226.59353226 137.9375 228.4375 C137.37611328 229.06720703 136.81472656 229.69691406 136.23632812 230.34570312 C119.56264528 248.88683845 99.60408066 262.80630313 76 271 C75.35514648 271.22671387 74.71029297 271.45342773 74.04589844 271.68701172 C39.41807875 283.5834255 0.83964783 281.57369354 -32.11328125 265.5703125 C-40.50307028 261.34141845 -48.56703265 256.7752552 -56 251 C-56.77859375 250.4225 -57.5571875 249.845 -58.359375 249.25 C-87.88498412 226.68265545 -106.35510409 193.47386668 -112 157 C-117.04349811 118.94728253 -107.4836927 81.62464441 -84.3828125 50.9140625 C-69.97457625 33.29349817 -26.62540717 -9.12871103 0 0 Z M-68.71484375 46.70703125 C-84.93456991 63.45990713 -95.63750552 84.37982807 -101 107 C-101.16226074 107.65581055 -101.32452148 108.31162109 -101.49169922 108.98730469 C-106.00806411 127.82646558 -105.43172723 148.20366731 -101 167 C-100.75854248 168.04196533 -100.75854248 168.04196533 -100.51220703 169.10498047 C-96.52007715 185.67557916 -89.16122122 201.32221932 -79 215 C-78.41089844 215.81082031 -77.82179688 216.62164062 -77.21484375 217.45703125 C-67.67964651 229.98842635 -56.23889795 240.53251969 -43 249 C-41.92621094 249.69609375 -40.85242188 250.3921875 -39.74609375 251.109375 C-11.37978376 268.39038557 24.85707572 274.21131927 57.30834961 266.83618164 C59.55522505 266.27046287 61.77718295 265.65356492 64 265 C64.7317041 264.78569336 65.4634082 264.57138672 66.21728516 264.35058594 C88.90139469 257.4595918 111.00668376 244.73416592 127 227 C127 226.34 127 225.68 127 225 C126.08524902 225.02094727 125.17049805 225.04189453 124.22802734 225.06347656 C79.4661948 225.95073908 41.53387785 216.31120063 8 185 C-17.66236514 160.00036452 -32.62877659 124.02102036 -33.28564453 88.4050293 C-33.49609718 60.74198464 -27.3215422 38.59321404 -15 14 C-14.67 13.34 -14.34 12.68 -14 12 C-33.089473 12 -56.33027776 34.3581043 -68.71484375 46.70703125 Z " fill="#070707" transform="translate(123,8)"/>
<path d="M0 0 C1.82734855 2.74102283 2.69594434 4.863171 3.75 7.9375 C5.61007302 12.65288805 7.2879448 14.78256226 12 17 C14.32813318 17.80571209 16.5980922 18.42354213 19 19 C16.35392064 20.76405291 13.87854286 21.9974514 11 23.3125 C6.96805425 25.32261249 4.66004472 26.64238262 3 31 C2.27833809 33.31691454 1.59940471 35.64848923 1 38 C-0.72091959 35.41862061 -1.62302113 33.41877135 -2.6875 30.5625 C-4.47238593 26.49031581 -6.11643767 24.60349058 -10.1171875 22.70703125 C-13.04921062 21.60600182 -15.95639261 20.74537324 -19 20 C-16.54883719 18.72539534 -14.15228075 17.67632538 -11.5625 16.6875 C-6.8706159 14.46502858 -3.92639834 12.42574987 -2.02734375 7.453125 C-1.27664901 4.98106977 -0.60006753 2.51247785 0 0 Z " fill="#090909" transform="translate(199,73)"/>
<path d="M0 0 C0.29261719 0.59554687 0.58523437 1.19109375 0.88671875 1.8046875 C3.76057215 7.57960862 3.76057215 7.57960862 8.75 11.375 C9.4925 11.58125 10.235 11.7875 11 12 C11 12.66 11 13.32 11 14 C9.6078125 14.5878125 9.6078125 14.5878125 8.1875 15.1875 C4.69930918 17.17098106 3.72717596 18.45928928 2 22 C1.608125 22.763125 1.21625 23.52625 0.8125 24.3125 C0.544375 24.869375 0.27625 25.42625 0 26 C-0.268125 24.906875 -0.53625 23.81375 -0.8125 22.6875 C-2.0519567 18.6401605 -2.0519567 18.6401605 -5 16 C-7.59915538 14.80972016 -7.59915538 14.80972016 -10 14 C-10 13.34 -10 12.68 -10 12 C-9.0925 11.690625 -8.185 11.38125 -7.25 11.0625 C-2.79935222 8.23805045 -1.72418627 4.83786383 0 0 Z " fill="#0F0F0F" transform="translate(215,132)"/>
<path d="M0 0 C0.86625 1.175625 0.86625 1.175625 1.75 2.375 C3.82897637 4.80047244 5.09040333 5.85694417 8 7 C8 7.66 8 8.32 8 9 C7.236875 9.45375 6.47375 9.9075 5.6875 10.375 C2.99130956 12.00525469 1.70517864 13.39735892 0 16 C-0.3403125 14.824375 -0.3403125 14.824375 -0.6875 13.625 C-1.78125 10.78125 -1.78125 10.78125 -4.625 9.6875 C-5.40875 9.460625 -6.1925 9.23375 -7 9 C-7 8.34 -7 7.68 -7 7 C-5.824375 6.6596875 -5.824375 6.6596875 -4.625 6.3125 C-1.78125 5.21875 -1.78125 5.21875 -0.6875 2.375 C-0.460625 1.59125 -0.23375 0.8075 0 0 Z " fill="#111111" transform="translate(151,60)"/>
<path d="M0 0 C2 3 2 3 2 7 C0.02 7.99 0.02 7.99 -2 9 C-1.34 6.03 -0.68 3.06 0 0 Z " fill="#343435" transform="translate(199,73)"/>
</svg>
