<?xml version="1.0" encoding="UTF-8"?>
<svg version="1.1" xmlns="http://www.w3.org/2000/svg" width="323" height="320">
<path d="M0 0 C106.59 0 213.18 0 323 0 C323 105.6 323 211.2 323 320 C216.41 320 109.82 320 0 320 C0 214.4 0 108.8 0 0 Z " fill="#FFFEFE" transform="translate(0,0)"/>
<path d="M0 0 C5.51076685 1.772518 9.67635226 6.59257076 13.25 11.01171875 C15.49785082 13.74559137 17.76901416 15.67538349 20.5625 17.82421875 C21.91682675 19.13622279 23.24983482 20.47053279 24.5625 21.82421875 C25.42875 22.64921875 26.295 23.47421875 27.1875 24.32421875 C29.5625 26.82421875 29.5625 26.82421875 30.5625 29.01171875 C31.43888512 31.06293403 31.43888512 31.06293403 33.875 31.69921875 C36.8657766 32.95117174 38.22587669 34.52221699 40.15625 37.09375 C42.11875819 39.50872535 44.35685078 41.63368531 46.5625 43.82421875 C48.04146662 45.30228324 49.51992804 46.78085332 50.99804688 48.25976562 C51.8424231 49.10414185 52.68679932 49.94851807 53.5567627 50.81848145 C69.34185791 66.60357666 69.34185791 66.60357666 85.12695312 82.38867188 C86.3015358 83.56284668 86.3015358 83.56284668 87.49984741 84.76074219 C89.12316679 86.38471004 90.74394205 88.01122101 92.36376953 89.63867188 C94.70047161 91.96136308 97.07625953 94.2383602 99.4609375 96.51171875 C101.2868539 98.28214421 103.11236353 100.05298927 104.9375 101.82421875 C105.87722656 102.71367188 106.81695312 103.603125 107.78515625 104.51953125 C108.66816406 105.38320312 109.55117188 106.246875 110.4609375 107.13671875 C111.27224121 107.91660156 112.08354492 108.69648437 112.91943359 109.5 C114.5625 111.82421875 114.5625 111.82421875 114.49072266 114.4609375 C113.35304909 117.35748671 111.60713125 118.71500145 109.171875 120.58203125 C105.53265072 123.39094708 102.55498251 126.80823974 99.625 130.32421875 C96.86191943 133.5974065 93.89106088 136.13304187 90.5625 138.82421875 C87.76395762 141.48283401 85.20804572 144.2310126 82.75 147.19921875 C79.94409644 150.53168005 76.81534711 153.26119696 73.5 156.07421875 C71.66900686 157.728019 70.12642014 159.42031597 68.5625 161.32421875 C65.81508831 164.66303513 62.73297384 167.39708108 59.44921875 170.19921875 C56.24016136 172.96312739 53.32031904 175.83121449 50.75 179.19921875 C48.82857405 181.50492988 46.96207123 183.2656174 44.6875 185.19921875 C42.06616346 187.43364215 39.74707745 189.66213803 37.5625 192.32421875 C34.81508831 195.66303513 31.73297384 198.39708108 28.44921875 201.19921875 C25.24016136 203.96312739 22.32031904 206.83121449 19.75 210.19921875 C17.24748544 213.20223623 14.46833495 215.60069338 11.5078125 218.140625 C6.93304175 222.09991455 3.01627305 226.54837116 -0.88671875 231.15234375 C-2.4375 232.82421875 -2.4375 232.82421875 -4.4375 233.82421875 C-12.95878885 233.40513897 -21.01795315 231.02805346 -28.90625 227.8203125 C-37.09507442 224.59785844 -45.8391893 222.62709035 -54.4375 220.82421875 C-55.06527344 220.64761719 -55.69304687 220.47101563 -56.33984375 220.2890625 C-61.51976585 219.14118405 -67.34336467 218.94002828 -72.25 221.01171875 C-72.971875 221.60984375 -73.69375 222.20796875 -74.4375 222.82421875 C-75.365625 223.44296875 -76.29375 224.06171875 -77.25 224.69921875 C-82.59593046 229.19592588 -86.33698286 236.62318447 -89.4375 242.82421875 C-90.0975 242.82421875 -90.7575 242.82421875 -91.4375 242.82421875 C-91.52515625 243.34757813 -91.6128125 243.8709375 -91.703125 244.41015625 C-92.70640978 247.70818813 -94.43791204 250.50466381 -96.1875 253.44921875 C-99.09402879 258.42804293 -101.81194977 263.44067506 -104.33984375 268.625 C-105.9102202 271.77134143 -107.65781155 274.79215694 -109.4375 277.82421875 C-110.0975 277.82421875 -110.7575 277.82421875 -111.4375 277.82421875 C-111.64375 278.48421875 -111.85 279.14421875 -112.0625 279.82421875 C-119.00204071 294.96503484 -135.12694469 302.08892478 -149.4375 308.82421875 C-150.51128906 309.36820312 -151.58507812 309.9121875 -152.69140625 310.47265625 C-162.12960683 315.11791571 -173.82692401 315.26617335 -183.9375 312.76171875 C-191.14682283 310.22288745 -195.70666305 304.28143654 -199.4375 297.82421875 C-202.41590254 288.07649501 -201.38334895 275.11551266 -197.4375 265.82421875 C-197.13585937 265.08300781 -196.83421875 264.34179688 -196.5234375 263.578125 C-194.09043682 257.87145268 -191.24505061 252.35337454 -188.4375 246.82421875 C-187.76992522 245.49133986 -187.10294539 244.15816202 -186.4375 242.82421875 C-185.7775 242.82421875 -185.1175 242.82421875 -184.4375 242.82421875 C-184.210625 242.10234375 -183.98375 241.38046875 -183.75 240.63671875 C-182.13930279 237.18522472 -180.2553607 235.39704808 -177.4375 232.82421875 C-176.80070312 232.2415625 -176.16390625 231.65890625 -175.5078125 231.05859375 C-166.33928571 222.82421875 -166.33928571 222.82421875 -162.4375 222.82421875 C-162.4375 222.16421875 -162.4375 221.50421875 -162.4375 220.82421875 C-161.6434375 220.43363281 -160.849375 220.04304687 -160.03125 219.640625 C-157.2988552 218.27522936 -154.59991012 216.85429813 -151.90625 215.4140625 C-151.09542969 214.98158203 -150.28460938 214.54910156 -149.44921875 214.10351562 C-147.77311336 213.20811563 -146.09863187 212.30966928 -144.42578125 211.40820312 C-140.1688022 209.14435655 -136.09621944 207.1628443 -131.4375 205.82421875 C-131.4375 205.16421875 -131.4375 204.50421875 -131.4375 203.82421875 C-130.550625 203.39109375 -129.66375 202.95796875 -128.75 202.51171875 C-125.4864415 200.90417994 -125.4864415 200.90417994 -122.6875 199.13671875 C-120.4375 197.82421875 -120.4375 197.82421875 -118.4375 197.82421875 C-118.4375 197.16421875 -118.4375 196.50421875 -118.4375 195.82421875 C-117.695 195.26734375 -116.9525 194.71046875 -116.1875 194.13671875 C-112.14257585 190.73530526 -110.11645051 186.86107028 -108.4375 181.82421875 C-107.35772379 166.97729581 -109.85758731 152.0912581 -117 138.94921875 C-119.22376634 134.1149441 -120.28039451 129.0033114 -121.4375 123.82421875 C-121.70119385 123.0360376 -121.9648877 122.24785645 -122.23657227 121.43579102 C-122.4375 118.82421875 -122.4375 118.82421875 -120.77856445 116.5 C-119.960896 115.72011719 -119.14322754 114.94023438 -118.30078125 114.13671875 C-117.41326172 113.27304688 -116.52574219 112.409375 -115.61132812 111.51953125 C-114.66708984 110.63007812 -113.72285156 109.740625 -112.75 108.82421875 C-110.91075547 107.05546791 -109.07344862 105.28469949 -107.23828125 103.51171875 C-106.41497314 102.73183594 -105.59166504 101.95195313 -104.7434082 101.1484375 C-102.44331164 98.83007654 -100.47296858 96.37389709 -98.4375 93.82421875 C-97.468125 93.01984375 -96.49875 92.21546875 -95.5 91.38671875 C-92.37536005 88.7722241 -90.03286317 85.95196411 -87.4375 82.82421875 C-85.78216005 81.47684902 -84.11737227 80.14087539 -82.4375 78.82421875 C-81.4475 77.33921875 -81.4475 77.33921875 -80.4375 75.82421875 C-79.7775 75.82421875 -79.1175 75.82421875 -78.4375 75.82421875 C-77.9425 74.33921875 -77.9425 74.33921875 -77.4375 72.82421875 C-75.5 70.63671875 -75.5 70.63671875 -73.4375 68.82421875 C-72.7775 68.82421875 -72.1175 68.82421875 -71.4375 68.82421875 C-71.1075 67.83421875 -70.7775 66.84421875 -70.4375 65.82421875 C-68.77534732 64.48526243 -67.10786393 63.15291733 -65.4375 61.82421875 C-63.74661778 59.84464933 -62.07919528 57.84476679 -60.4375 55.82421875 C-58.25 53.44921875 -58.25 53.44921875 -56.4375 51.82421875 C-55.7775 51.82421875 -55.1175 51.82421875 -54.4375 51.82421875 C-54.1075 50.83421875 -53.7775 49.84421875 -53.4375 48.82421875 C-51.5 46.63671875 -51.5 46.63671875 -49.4375 44.82421875 C-48.7775 44.82421875 -48.1175 44.82421875 -47.4375 44.82421875 C-47.1075 43.83421875 -46.7775 42.84421875 -46.4375 41.82421875 C-44.77534732 40.48526243 -43.10786393 39.15291733 -41.4375 37.82421875 C-40.23732595 36.36454761 -39.03831441 34.9038241 -37.85473633 33.43066406 C-36.33192535 31.70454929 -34.71302179 30.28712001 -32.94921875 28.80859375 C-27.01314523 23.68023211 -21.60014497 18.01805569 -16.12109375 12.41186523 C-14.73350999 10.99427072 -13.33951582 9.5829597 -11.9453125 8.171875 C-10.71772217 6.9190271 -10.71772217 6.9190271 -9.46533203 5.64086914 C-7.4375 3.82421875 -7.4375 3.82421875 -5.4375 3.82421875 C-5.4375 3.16421875 -5.4375 2.50421875 -5.4375 1.82421875 C-2.4375 -0.17578125 -2.4375 -0.17578125 0 0 Z " fill="#FF1694" transform="translate(203.4375,1.17578125)"/>
<path d="M0 0 C3.40667209 0.28388934 4.68756804 0.64851404 7 3.25 C7.66 4.1575 8.32 5.065 9 6 C11.81171408 8.96792042 14.76626144 11.66587122 17.875 14.3125 C21.36323999 17.32298855 24.30344671 20.57687448 27.27734375 24.0859375 C29.46404067 26.51560075 31.86603767 28.55869379 34.37890625 30.640625 C37.94880287 33.63417687 41.01971792 36.99829497 44 40.5625 C46.4298792 43.44603951 49.04503466 45.65118139 52 48 C53.19209225 49.44984193 54.38303434 50.90077882 55.5546875 52.3671875 C57.21816935 54.2464724 59.02362017 55.81470456 60.9375 57.4375 C64.20220373 60.21127083 66.91752538 63.14293628 69.6328125 66.4453125 C71.52197466 68.59355976 73.76440762 70.22299067 76 72 C77.68732277 73.98260426 79.35366057 75.9832342 81 78 C83.344169 80.45851871 85.53321048 82.67198575 88.3125 84.625 C88.869375 85.07875 89.42625 85.5325 90 86 C90 89 90 89 88.3203125 90.82421875 C87.59585938 91.43910156 86.87140625 92.05398437 86.125 92.6875 C85.04605469 93.62142578 85.04605469 93.62142578 83.9453125 94.57421875 C82 96 82 96 80 96 C79.505 97.485 79.505 97.485 79 99 C77.43359375 100.54296875 77.43359375 100.54296875 75.4375 102.1875 C71.60614476 105.41826442 68.11928602 108.86879734 64.6640625 112.49609375 C63 114 63 114 61 114 C60.505 115.485 60.505 115.485 60 117 C58.00390625 118.82421875 58.00390625 118.82421875 55.5625 120.6875 C54.35787109 121.62142578 54.35787109 121.62142578 53.12890625 122.57421875 C51 124 51 124 49 124 C49 124.66 49 125.32 49 126 C40.41404358 130.88135593 40.41404358 130.88135593 35 130 C33.3503418 128.88745117 33.3503418 128.88745117 32 127 C31.65942383 123.99731445 31.65942383 123.99731445 31.70703125 120.36328125 C31.71669922 119.06455078 31.72636719 117.76582031 31.73632812 116.42773438 C31.76139415 115.05598361 31.78678899 113.68423882 31.8125 112.3125 C31.8275498 110.92905076 31.8412377 109.54558599 31.85351562 108.16210938 C31.88892777 104.77434793 31.93831946 101.38736861 32 98 C30.02 97.505 30.02 97.505 28 97 C28 96.34 28 95.68 28 95 C26.31583984 95.2165625 26.31583984 95.2165625 24.59765625 95.4375 C4.7696016 97.92320053 4.7696016 97.92320053 -1 96 C-3.62272352 90.75455295 -2.77453453 82.5333029 -1.10546875 77.07421875 C-0.15963754 74.97868459 0.82840116 72.97707305 2 71 C2.66 71 3.32 71 4 71 C4.33 69.35 4.66 67.7 5 66 C5.66 66 6.32 66 7 66 C6.88617347 64.04098546 6.75858875 62.0827662 6.625 60.125 C6.52058594 58.48917969 6.52058594 58.48917969 6.4140625 56.8203125 C6.26746509 53.86953526 6.26746509 53.86953526 4 52 C1.40730017 52.01747888 -1.0525154 52.13768592 -3.625 52.375 C-4.33140625 52.43171875 -5.0378125 52.4884375 -5.765625 52.546875 C-7.51121361 52.68840921 -9.25573673 52.84297387 -11 53 C-11 53.66 -11 54.32 -11 55 C-11.7734375 55.31453125 -12.546875 55.6290625 -13.34375 55.953125 C-20.37965447 58.83092713 -20.37965447 58.83092713 -27.125 62.3125 C-31.58910867 64.59602729 -36.09425811 64.99006791 -41 64 C-43.1875 62.125 -43.1875 62.125 -44 59 C-44.10047163 53.42839127 -43.5987972 48.46250853 -40 44 C-39.01 43.505 -39.01 43.505 -38 43 C-36.99705172 41.33510585 -35.99754226 39.66813885 -35 38 C-33.66412314 36.40392223 -32.28611016 34.84246711 -30.875 33.3125 C-30.070625 32.4359375 -29.26625 31.559375 -28.4375 30.65625 C-27.633125 29.7796875 -26.82875 28.903125 -26 28 C-25.319375 27.2265625 -24.63875 26.453125 -23.9375 25.65625 C-18.55731754 19.5424063 -12.86154461 13.79187547 -7.05224609 8.08911133 C-6.42785645 7.47318115 -5.8034668 6.85725098 -5.16015625 6.22265625 C-4.31916382 5.39906616 -4.31916382 5.39906616 -3.46118164 4.55883789 C-1.78656484 2.85786265 -1.78656484 2.85786265 0 0 Z " fill="#FFFBFD" transform="translate(199,29)"/>
<path d="M0 0 C2.28125 1.57421875 2.28125 1.57421875 4.5 3.6875 C5.2321875 4.37199219 5.964375 5.05648437 6.71875 5.76171875 C9.16187838 8.1588293 11.58151293 10.57802305 14 13 C15.25577668 14.23382016 16.51234898 15.46683083 17.76953125 16.69921875 C19.11727642 18.02855569 20.46493096 19.35798452 21.8125 20.6875 C22.50537109 21.36361328 23.19824219 22.03972656 23.91210938 22.73632812 C24.56630859 23.38408203 25.22050781 24.03183594 25.89453125 24.69921875 C26.78942261 25.57839966 26.78942261 25.57839966 27.70239258 26.4753418 C29 28 29 28 29 30 C29.556875 30.2475 30.11375 30.495 30.6875 30.75 C35.50185889 33.35235615 38.66735789 36.73005229 42 41 C44.85120303 44.0096032 47.85335403 46.74628963 51 49.4375 C54.41313802 52.39813866 57.3011461 55.37341507 60 59 C60 59.66 60 60.32 60 61 C60.8353125 61.37125 60.8353125 61.37125 61.6875 61.75 C64.42410913 63.22924818 66.67650869 64.93467439 69 67 C69 67.66 69 68.32 69 69 C70.485 69.495 70.485 69.495 72 70 C77 75.46511628 77 75.46511628 77 78 C77.556875 78.226875 78.11375 78.45375 78.6875 78.6875 C81.64999791 80.36891773 83.60845485 82.57071167 86 85 C86.97307623 85.92166349 87.94969381 86.83960142 88.9296875 87.75390625 C89.91151887 88.69004068 90.89328938 89.62623894 91.875 90.5625 C92.38546875 91.03107422 92.8959375 91.49964844 93.421875 91.98242188 C94.8671875 93.37890625 94.8671875 93.37890625 97 96 C97.0550371 100.90747442 92.21789431 104.70663269 89 108 C87.7315625 108.99 87.7315625 108.99 86.4375 110 C83.46798156 112.43652795 81.56943586 115.22148419 79.4296875 118.390625 C78.95789063 118.92171875 78.48609375 119.4528125 78 120 C75 120 75 120 73.421875 118.4609375 C72.87015625 117.77257812 72.3184375 117.08421875 71.75 116.375 C68.92657719 112.99761449 66.00383169 110.16199975 62.62109375 107.359375 C59.06890116 104.38066893 55.99253982 101.02556218 53 97.5 C49.29869313 93.14110054 45.31475705 89.24915219 41 85.5 C36.73589404 81.79485924 32.79460719 77.9767379 29.1875 73.625 C26.35486486 70.26672123 23.21046048 67.46232041 19.875 64.61328125 C16.13833919 61.39819601 12.87784036 57.86862011 9.6875 54.125 C6.6738309 50.63307471 3.41699997 47.68982147 -0.09765625 44.71484375 C-1.91715567 43.07467898 -3.44664555 41.39012506 -5 39.5 C-7.74580895 36.16313136 -10.82384101 33.42927845 -14.109375 30.6328125 C-16.53209688 28.54046178 -18.76936108 26.29437146 -21 24 C-21.598125 23.46375 -22.19625 22.9275 -22.8125 22.375 C-24 21 -24 21 -24 18 C-22.125 15.8125 -22.125 15.8125 -20 14 C-19.34 14 -18.68 14 -18 14 C-17.67 13.01 -17.34 12.02 -17 11 C-15.0625 8.8125 -15.0625 8.8125 -13 7 C-12.34 7 -11.68 7 -11 7 C-10.67 6.01 -10.34 5.02 -10 4 C-6.64951773 0.74258669 -4.67926338 -0.61642991 0 0 Z " fill="#FFF9FC" transform="translate(122,100)"/>
<path d="M0 0 C0.99 0 1.98 0 3 0 C3 104.28 3 208.56 3 316 C2.01 316 1.02 316 0 316 C-0.33 250.33 -0.66 184.66 -1 117 C-4.465 120.96 -4.465 120.96 -8 125 C-10.36894915 127.48175625 -12.64917678 129.73226649 -15.375 131.8125 C-18.30883294 134.25736079 -20.6297973 136.95128246 -23.10546875 139.84765625 C-26.23356286 143.40142915 -29.62186034 146.68613784 -33 150 C-33.886875 150.886875 -34.77375 151.77375 -35.6875 152.6875 C-87.5 204.5 -87.5 204.5 -89.31640625 206.3125 C-90.69961053 207.69891357 -92.07032891 209.09777324 -93.4375 210.5 C-96.83339921 213.8130724 -100.40566953 216.90512985 -104 220 C-104.66 219.67 -105.32 219.34 -106 219 C-105.0409375 218.5978125 -105.0409375 218.5978125 -104.0625 218.1875 C-101.66868314 217.11332248 -101.66868314 217.11332248 -101 214 C-100.34 214 -99.68 214 -99 214 C-98.731875 213.401875 -98.46375 212.80375 -98.1875 212.1875 C-97.00082594 210.00152146 -95.90400887 208.58667406 -94 207 C-93.34 207 -92.68 207 -92 207 C-91.79375 206.46375 -91.5875 205.9275 -91.375 205.375 C-89.46749574 202.08021991 -86.95180616 199.40636372 -84 197 C-83.34 197 -82.68 197 -82 197 C-81.01 195.02 -81.01 195.02 -80 193 C-79.34 193 -78.68 193 -78 193 C-77.690625 192.195625 -77.690625 192.195625 -77.375 191.375 C-75.46749574 188.08021991 -72.95180616 185.40636372 -70 183 C-69.34 183 -68.68 183 -68 183 C-67.731875 182.401875 -67.46375 181.80375 -67.1875 181.1875 C-66.00082594 179.00152146 -64.90400887 177.58667406 -63 176 C-62.34 176 -61.68 176 -61 176 C-60.79375 175.46375 -60.5875 174.9275 -60.375 174.375 C-58.46749574 171.08021991 -55.95180616 168.40636372 -53 166 C-52.34 166 -51.68 166 -51 166 C-50.79375 165.46375 -50.5875 164.9275 -50.375 164.375 C-48.46749574 161.08021991 -45.95180616 158.40636372 -43 156 C-42.34 156 -41.68 156 -41 156 C-40.34 154.68 -39.68 153.36 -39 152 C-38.34 152 -37.68 152 -37 152 C-36.79375 151.46375 -36.5875 150.9275 -36.375 150.375 C-34.46749574 147.08021991 -31.95180616 144.40636372 -29 142 C-28.34 142 -27.68 142 -27 142 C-26.731875 141.401875 -26.46375 140.80375 -26.1875 140.1875 C-25.00082594 138.00152146 -23.90400887 136.58667406 -22 135 C-21.34 135 -20.68 135 -20 135 C-19.79375 134.46375 -19.5875 133.9275 -19.375 133.375 C-17.46749574 130.08021991 -14.95180616 127.40636372 -12 125 C-11.34 125 -10.68 125 -10 125 C-9.5978125 124.1028125 -9.5978125 124.1028125 -9.1875 123.1875 C-8.00082594 121.00152146 -6.90400887 119.58667406 -5 118 C-4.34 118 -3.68 118 -3 118 C-2.67 116.35 -2.34 114.7 -2 113 C-1.34 113 -0.68 113 0 113 C0 75.71 0 38.42 0 0 Z " fill="#F1F2F3" transform="translate(320,0)"/>
<path d="M0 0 C1.30453125 -0.02578125 2.6090625 -0.0515625 3.953125 -0.078125 C8.07030118 0.27768035 10.35185631 0.91254856 13.75 3.25 C16.79874248 7.71126258 17.08816277 11.30158215 16.9375 16.625 C16.91042969 17.87023437 16.88335937 19.11546875 16.85546875 20.3984375 C16.82066406 21.33945312 16.78585938 22.28046875 16.75 23.25 C16.09 23.25 15.43 23.25 14.75 23.25 C14.42 24.57 14.09 25.89 13.75 27.25 C11.44 27.58 9.13 27.91 6.75 28.25 C6.75 28.91 6.75 29.57 6.75 30.25 C1.74221846 30.60628485 -2.12943414 30.77026272 -6.75 28.625 C-10.51331906 25.04984689 -11.15121764 21.63585847 -11.515625 16.5234375 C-11.51046875 15.23695313 -11.5053125 13.95046875 -11.5 12.625 C-11.50515625 11.33335937 -11.5103125 10.04171875 -11.515625 8.7109375 C-11.27333241 5.55400762 -11.02924304 3.81862551 -9.25 1.25 C-6.21764223 -0.26617889 -3.37074987 0.03965588 0 0 Z " fill="#FFF4F9" transform="translate(36.25,264.75)"/>
<path d="M0 0 C0.66 0 1.32 0 2 0 C2.15083002 36.7905279 2.29586204 73.58107437 2.4332476 110.37165502 C2.44951626 114.72693683 2.46583233 119.08221847 2.48217773 123.4375 C2.48543066 124.30446406 2.48868358 125.17142813 2.49203508 126.06466383 C2.54464065 140.05495954 2.60107663 154.04523726 2.6589582 168.03551203 C2.71837778 182.41841157 2.77361142 196.80132292 2.82505554 211.18425322 C2.85686226 220.04081135 2.89183411 228.89734488 2.93101191 237.75387353 C2.95765721 243.84841963 2.98019294 249.94297281 2.99967117 256.03754598 C3.01098158 259.54019889 3.02393578 263.04282231 3.04183006 266.5454483 C3.12205753 283.06070711 2.8696521 299.50579187 2 316 C1.34 316 0.68 316 0 316 C0 211.72 0 107.44 0 0 Z " fill="#F1F1F3" transform="translate(0,0)"/>
<path d="M0 0 C0.495 1.485 0.495 1.485 1 3 C-0.2578125 4.8671875 -0.2578125 4.8671875 -2.125 6.875 C-2.7746875 7.57882813 -3.424375 8.28265625 -4.09375 9.0078125 C-5.03734375 9.99394531 -5.03734375 9.99394531 -6 11 C-6.86625 11.9075 -7.7325 12.815 -8.625 13.75 C-11 16 -11 16 -13.375 17.8125 C-16.30883294 20.25736079 -18.6297973 22.95128246 -21.10546875 25.84765625 C-24.23356286 29.40142915 -27.62186034 32.68613784 -31 36 C-31.886875 36.886875 -32.77375 37.77375 -33.6875 38.6875 C-85.5 90.5 -85.5 90.5 -87.31640625 92.3125 C-88.69961053 93.69891357 -90.07032891 95.09777324 -91.4375 96.5 C-94.83339921 99.8130724 -98.40566953 102.90512985 -102 106 C-102.66 105.67 -103.32 105.34 -104 105 C-103.0409375 104.5978125 -103.0409375 104.5978125 -102.0625 104.1875 C-99.66868314 103.11332248 -99.66868314 103.11332248 -99 100 C-98.34 100 -97.68 100 -97 100 C-96.731875 99.401875 -96.46375 98.80375 -96.1875 98.1875 C-95.00082594 96.00152146 -93.90400887 94.58667406 -92 93 C-91.34 93 -90.68 93 -90 93 C-89.79375 92.46375 -89.5875 91.9275 -89.375 91.375 C-87.46749574 88.08021991 -84.95180616 85.40636372 -82 83 C-81.34 83 -80.68 83 -80 83 C-79.34 81.68 -78.68 80.36 -78 79 C-77.34 79 -76.68 79 -76 79 C-75.79375 78.46375 -75.5875 77.9275 -75.375 77.375 C-73.46749574 74.08021991 -70.95180616 71.40636372 -68 69 C-67.34 69 -66.68 69 -66 69 C-65.731875 68.401875 -65.46375 67.80375 -65.1875 67.1875 C-64.00082594 65.00152146 -62.90400887 63.58667406 -61 62 C-60.34 62 -59.68 62 -59 62 C-58.79375 61.46375 -58.5875 60.9275 -58.375 60.375 C-56.46749574 57.08021991 -53.95180616 54.40636372 -51 52 C-50.34 52 -49.68 52 -49 52 C-48.79375 51.46375 -48.5875 50.9275 -48.375 50.375 C-46.46749574 47.08021991 -43.95180616 44.40636372 -41 42 C-40.34 42 -39.68 42 -39 42 C-38.34 40.68 -37.68 39.36 -37 38 C-36.34 38 -35.68 38 -35 38 C-34.79375 37.46375 -34.5875 36.9275 -34.375 36.375 C-32.46749574 33.08021991 -29.95180616 30.40636372 -27 28 C-26.34 28 -25.68 28 -25 28 C-24.731875 27.401875 -24.46375 26.80375 -24.1875 26.1875 C-23.00082594 24.00152146 -21.90400887 22.58667406 -20 21 C-19.34 21 -18.68 21 -18 21 C-17.690625 20.195625 -17.690625 20.195625 -17.375 19.375 C-15.46749574 16.08021991 -12.95180616 13.40636372 -10 11 C-9.34 11 -8.68 11 -8 11 C-7.731875 10.401875 -7.46375 9.80375 -7.1875 9.1875 C-6.00082594 7.00152146 -4.90400887 5.58667406 -3 4 C-2.34 4 -1.68 4 -1 4 C-0.67 2.68 -0.34 1.36 0 0 Z " fill="#FFC2E1" transform="translate(318,114)"/>
<path d="M0 0 C0.66 0.33 1.32 0.66 2 1 C1.75 2.875 1.75 2.875 1 5 C-0.9375 6.1875 -0.9375 6.1875 -3 7 C-3.66 7.33 -4.32 7.66 -5 8 C-5.15096634 8.61700775 -5.30193268 9.2340155 -5.45747375 9.86972046 C-6.08666884 12.34031322 -6.90238718 13.28702714 -8.68041992 15.08447266 C-9.24158005 15.65831696 -9.80274017 16.23216125 -10.38090515 16.82339478 C-10.99126114 17.43081512 -11.60161713 18.03823547 -12.23046875 18.6640625 C-12.85850906 19.29734467 -13.48654938 19.93062683 -14.13362122 20.58309937 C-15.46395704 21.91985506 -16.79818504 23.25274689 -18.13598633 24.58203125 C-20.17479264 26.61234557 -22.19428767 28.66055909 -24.21289062 30.7109375 C-25.50928463 32.00894412 -26.80677582 33.30585602 -28.10546875 34.6015625 C-28.70570358 35.21303131 -29.30593842 35.82450012 -29.92436218 36.45449829 C-33.40439341 39.8779429 -36.10961745 41.85768694 -41 43 C-40.61328125 42.55269531 -40.2265625 42.10539062 -39.828125 41.64453125 C-37.48768743 38.92753813 -35.1741104 36.2285199 -33 33.375 C-31 31 -31 31 -28.0625 28.5625 C-24.93786005 25.94800535 -22.59536317 23.12774536 -20 20 C-18.34466005 18.65263027 -16.67987227 17.31665664 -15 16 C-14.34 15.01 -13.68 14.02 -13 13 C-12.34 13 -11.68 13 -11 13 C-10.67 12.01 -10.34 11.02 -10 10 C-8.0625 7.8125 -8.0625 7.8125 -6 6 C-5.34 6 -4.68 6 -4 6 C-3.67 5.01 -3.34 4.02 -3 3 C-1.4375 1.3125 -1.4375 1.3125 0 0 Z " fill="#FF2B9F" transform="translate(136,64)"/>
<path d="M0 0 C0.66 0.99 1.32 1.98 2 3 C-2.06555483 7.13958445 -6.14076978 11.26931539 -10.2253418 15.39013672 C-11.6141267 16.79402947 -13.00021002 18.20060002 -14.38354492 19.60986328 C-16.36978133 21.63239423 -18.36546169 23.64516817 -20.36328125 25.65625 C-20.98213699 26.2905896 -21.60099274 26.9249292 -22.23860168 27.57849121 C-22.8189769 28.15909302 -23.39935211 28.73969482 -23.99731445 29.33789062 C-24.76009453 30.11066345 -24.76009453 30.11066345 -25.5382843 30.89904785 C-27 32 -27 32 -30 32 C-30.33 32.66 -30.66 33.32 -31 34 C-31.66 33.67 -32.32 33.34 -33 33 C-27.07058824 25.75294118 -27.07058824 25.75294118 -24 23 C-23.34 23 -22.68 23 -22 23 C-21.67 22.01 -21.34 21.02 -21 20 C-19.0625 17.8125 -19.0625 17.8125 -17 16 C-16.34 16 -15.68 16 -15 16 C-14.67 15.01 -14.34 14.02 -14 13 C-12.33784732 11.66104368 -10.67036393 10.32869858 -9 9 C-7.32932867 7.00334402 -5.66247014 5.00348966 -4 3 C-1.6875 1.125 -1.6875 1.125 0 0 Z " fill="#FF2A9F" transform="translate(171,30)"/>
<path d="M0 0 C0.99 0.33 1.98 0.66 3 1 C-5.07744875 9.81548975 -5.07744875 9.81548975 -11 11 C-10.57847656 10.51789063 -10.15695313 10.03578125 -9.72265625 9.5390625 C-9.17480469 8.90742187 -8.62695312 8.27578125 -8.0625 7.625 C-7.51722656 6.99851562 -6.97195312 6.37203125 -6.41015625 5.7265625 C-4.93041376 4.04367666 -4.93041376 4.04367666 -4 2 C-2.68 2 -1.36 2 0 2 C0 1.34 0 0.68 0 0 Z " fill="#FF279C" transform="translate(106,96)"/>
<path d="M0 0 C0.66 0.33 1.32 0.66 2 1 C1.75 2.875 1.75 2.875 1 5 C-0.6875 5.9375 -0.6875 5.9375 -3 7 C-5.06981929 8.5941151 -7.02142006 10.29122641 -9 12 C-9.66 11.67 -10.32 11.34 -11 11 C-9.37660195 9.29115995 -7.70680947 7.62553283 -6 6 C-5.34 6 -4.68 6 -4 6 C-3.67 5.01 -3.34 4.02 -3 3 C-1.4375 1.3125 -1.4375 1.3125 0 0 Z " fill="#FF3DA8" transform="translate(136,64)"/>
<path d="M0 0 C0 4.35637821 -2.27897057 6.05610053 -5.109375 9.19140625 C-7.24427494 11.23367623 -9.12212703 12.30233382 -12 13 C-11.0919838 11.86800647 -10.17316174 10.74467637 -9.25 9.625 C-8.48429688 8.68527344 -8.48429688 8.68527344 -7.703125 7.7265625 C-5.91098401 5.90975902 -4.27601946 5.10007607 -2 4 C-0.73195434 1.9664052 -0.73195434 1.9664052 0 0 Z " fill="#FFBCDE" transform="translate(213,220)"/>
<path d="M0 0 C0.33 0 0.66 0 1 0 C1 3.96 1 7.92 1 12 C0.34 12 -0.32 12 -1 12 C-1.33 13.65 -1.66 15.3 -2 17 C-3.125 15.3125 -3.125 15.3125 -4 13 C-3.125 10.25 -3.125 10.25 -2 8 C-1.34 8 -0.68 8 0 8 C0 5.36 0 2.72 0 0 Z " fill="#FF59B3" transform="translate(205,83)"/>
<path d="M0 0 C0 3.24244455 -0.08730376 4.42201811 -2 7 C-5.625 8.25 -5.625 8.25 -9 9 C-9 8.34 -9 7.68 -9 7 C-7.02053408 5.63636792 -5.0180755 4.30581356 -3 3 C-1.20605554 1.37648891 -1.20605554 1.37648891 0 0 Z " fill="#FF48AB" transform="translate(257,146)"/>
<path d="M0 0 C2.125 0.375 2.125 0.375 4 1 C2.37660195 2.70884005 0.70680947 4.37446717 -1 6 C-1.66 6 -2.32 6 -3 6 C-2.42655063 3.13275314 -2.1385485 2.1385485 0 0 Z " fill="#FF239C" transform="translate(267,137)"/>
<path d="M0 0 C2.64 0.33 5.28 0.66 8 1 C8 3.31 8 5.62 8 8 C7.79375 7.401875 7.5875 6.80375 7.375 6.1875 C5.49073918 3.18981233 3.18867916 2.38638224 0 1 C0 0.67 0 0.34 0 0 Z " fill="#FF43A8" transform="translate(44,265)"/>
</svg>
