<svg xmlns="http://www.w3.org/2000/svg" viewBox="0 0 512 512">
  <rect width="512" height="512" fill="#e9242a"/>
  <circle cx="256" cy="256" r="140" fill="#ffffff"/>
  <path d="M312 256c0 43.63-35.37 79-79 79-30.3 0-56.75-17.32-69.79-42.63 12.08 53.74 59.94 94.63 117.79 94.63 66.31 0 120-53.69 120-120s-53.69-120-120-120c-57.85 0-105.71 40.89-117.79 94.63C176.25 193.32 202.7 176 233 176c43.63 0 79 35.37 79 79z" fill="#e9242a"/>
  <path d="M332 256l-53.89 17.58 33.3 45.8-40.71-31.48-13.7 54.08-13.7-54.08-40.71 31.48 33.3-45.8L183 256l53.89-17.58-33.3-45.8 40.71 31.48 13.7-54.08 13.7 54.08 40.71-31.48-33.3 45.8L332 256z" fill="#e9242a"/>
</svg>
