<svg
  xmlns="http://www.w3.org/2000/svg"
  viewBox="0 0 24 24"
  fill="currentColor"
  className="h-full w-full"
>
  <path d="M12 .5C5.649.5.5 5.649.5 12c0 5.084 3.292 9.39 7.861 10.914.574.106.784-.25.784-.554 0-.273-.01-1.184-.015-2.146-3.199.695-3.874-1.541-3.874-1.541-.523-1.328-1.278-1.682-1.278-1.682-1.044-.714.079-.699.079-.699 1.155.081 1.763 1.186 1.763 1.186 1.027 1.76 2.695 1.252 3.352.957.104-.744.402-1.252.731-1.54-2.554-.291-5.238-1.277-5.238-5.683 0-1.256.448-2.283 1.186-3.087-.119-.29-.514-1.459.112-3.043 0 0 .967-.31 3.17 1.181.919-.256 1.905-.384 2.884-.388.979.004 1.966.132 2.885.388 2.2-1.491 3.166-1.181 3.166-1.181.628 1.584.233 2.753.114 3.043.74.804 1.185 1.831 1.185 3.087 0 4.418-2.688 5.389-5.252 5.674.413.354.781 1.056.781 2.129 0 1.537-.014 2.778-.014 3.157 0 .306.208.665.79.552C20.212 21.386 23.5 17.082 23.5 12c0-6.351-5.149-11.5-11.5-11.5z" />
</svg>
