<?xml version="1.0" encoding="UTF-8"?>
<svg version="1.1" xmlns="http://www.w3.org/2000/svg" width="980" height="980">
<path d="M0 0 C1.3003418 0.17160645 2.60068359 0.34321289 3.94042969 0.52001953 C92.70884893 12.38279249 176.48787802 48.62150475 269.37402344 125.49169922 C271.12899673 127.11966093 272.8960027 128.73392163 274.6640625 130.34765625 C282.33499101 137.38138617 289.58226242 144.64039941 296.53515625 152.38232422 C298.03862059 154.04265001 299.56233741 155.681844 301.09375 157.31640625 C307.35054937 163.9975456 313.32134694 170.81366003 319 178 C319.50225098 178.62970703 320.00450195 179.25941406 320.52197266 179.90820312 C352.73410779 220.34693905 378.05461078 264.92835364 397 313 C397.56412598 314.41732422 397.56412598 314.41732422 398.13964844 315.86328125 C412.81911394 353.07882758 421.8580071 393.25739279 426 433 C426.08613556 433.81803101 426.17227112 434.63606201 426.26101685 435.47888184 C427.98044925 452.3264711 428.36208237 469.07339398 428.3125 486 C428.30976578 487.94406235 428.30976578 487.94406235 428.30697632 489.92739868 C428.26074579 509.48020344 427.69311517 528.61866372 425 548 C424.83902832 549.24894043 424.67805664 550.49788086 424.51220703 551.78466797 C418.65854954 596.68520118 406.20738605 640.55633893 388 682 C387.53126465 683.07217773 387.0625293 684.14435547 386.57958984 685.24902344 C371.2480921 720.04192492 352.2217515 752.87874678 329 783 C328.58282715 783.54333984 328.1656543 784.08667969 327.73583984 784.64648438 C315.17670305 800.97010493 301.70855007 816.5707262 287 831 C284.11320348 833.87176113 281.24884999 836.76409898 278.3984375 839.671875 C271.77023881 846.40700666 265.18737761 852.97292618 257.7421875 858.81640625 C255.16396399 860.86943608 252.69267818 863.0017814 250.22021484 865.17871094 C175.30045192 930.8903395 73.45289715 968.17801792 -46.4765625 977.203125 C-47.84261101 977.21014472 -49.20865919 977.21723156 -50.57470703 977.22438049 C-54.92480937 977.24381563 -59.27485864 977.24881527 -63.625 977.25 C-64.36558403 977.25044186 -65.10616806 977.25088371 -65.86919403 977.25133896 C-88.37164463 977.25838428 -110.65976276 976.98949208 -133 974 C-133.99927521 973.8691803 -133.99927521 973.8691803 -135.01873779 973.73571777 C-170.93048265 969.02087882 -205.77664403 960.60824295 -239 946 C-240.12559326 945.51345947 -240.12559326 945.51345947 -241.27392578 945.01708984 C-279.76864895 928.27158175 -317.12623208 899.74775868 -332.89599609 859.72607422 C-333.75827916 857.41157613 -334.5786488 855.08796412 -335.375 852.75 C-335.61371826 852.05430908 -335.85243652 851.35861816 -336.09838867 850.6418457 C-345.73315421 820.74096935 -340.22775343 788.12683851 -326.44360352 760.6105957 C-321.71019232 751.47957411 -316.19232102 743.19291704 -310 735 C-309.34 734.01 -308.68 733.02 -308 732 C-308.33733154 731.42145264 -308.67466309 730.84290527 -309.0222168 730.24682617 C-310.58268169 727.56346729 -312.13510174 724.8755331 -313.6875 722.1875 C-314.48317383 720.82334961 -314.48317383 720.82334961 -315.29492188 719.43164062 C-323.91188321 704.47090407 -329.76628002 690.36843938 -329.5 672.875 C-329.48791504 671.57385254 -329.47583008 670.27270508 -329.46337891 668.93212891 C-329.24773698 655.75514555 -327.4543889 642.9328872 -325 630 C-324.79632813 628.90606934 -324.59265625 627.81213867 -324.3828125 626.68505859 C-311.06706009 556.62324094 -284.74337937 487.61646574 -255 423 C-254.70436157 422.35629456 -254.40872314 421.71258911 -254.10412598 421.04937744 C-240.92387638 392.3654313 -226.80856103 364.33967843 -211 337 C-210.44489746 336.03288086 -209.88979492 335.06576172 -209.31787109 334.06933594 C-189.93404262 300.29825182 -168.63360292 267.68144171 -146 236 C-145.19175781 234.86401367 -145.19175781 234.86401367 -144.3671875 233.70507812 C-136.47472193 222.62383203 -128.33902038 211.74866371 -120 201 C-119.53384277 200.39736328 -119.06768555 199.79472656 -118.58740234 199.17382812 C-108.31996419 185.91741644 -97.83655563 172.82548372 -86.3828125 160.5703125 C-84.33619678 158.36265161 -82.37734662 156.11324832 -80.4375 153.8125 C-58.3866654 128.69327096 -26.89523036 123.69710151 4.91796875 121.515625 C46.64041071 119.02186985 46.64041071 119.02186985 58 127 C64.99265451 133.52647754 66.53243865 142.74795278 67 152 C67.07927734 153.49466797 67.07927734 153.49466797 67.16015625 155.01953125 C68.30160788 199.23837493 53.6119965 262.84560992 24.0625 297.25 C11.16565484 310.24744458 -5.19621925 315.24665854 -22.90234375 317.34375 C-37.51095972 319.27692023 -49.04610322 327.65203399 -59 338 C-59.77601563 338.77988281 -60.55203125 339.55976563 -61.3515625 340.36328125 C-111.11246155 392.673767 -162.73578728 504.81085371 -164.953125 581.28125 C-163.37527034 593.75381539 -155.4641958 605.00847913 -147.41015625 614.1953125 C-145.05389697 616.93728035 -142.9189409 619.7062367 -140.875 622.6875 C-140.03582031 623.89986328 -140.03582031 623.89986328 -139.1796875 625.13671875 C-136.44315452 631.77870113 -137.97587906 638.39912839 -140.3125 644.9375 C-140.57321289 645.689104 -140.83392578 646.44070801 -141.10253906 647.21508789 C-151.66328098 676.84383604 -165.34330207 705.07439701 -186 729 C-186.9000769 730.08197164 -187.79842069 731.16538665 -188.6953125 732.25 C-224.32849639 775.03759306 -224.32849639 775.03759306 -247 779 C-257.37118282 779.77736471 -266.49721161 773.45486628 -274.125 767.125 C-275.01445312 766.34382812 -275.90390625 765.56265625 -276.8203125 764.7578125 C-278.7927763 762.79074918 -278.7927763 762.79074918 -281 763 C-293.52958154 777.59631664 -299.084352 796.01398224 -298 815 C-295.92846685 834.44089835 -288.66844478 851.10770594 -276 866 C-275.48050781 866.66515625 -274.96101563 867.3303125 -274.42578125 868.015625 C-239.78788133 910.94219114 -170.35747125 924.08867669 -119.04882812 929.59326172 C-28.32013359 938.92493393 63.94204549 923.56629824 213.328125 835.36767578 C220.92864206 829.15007991 228.36715494 822.76344214 235.62890625 816.15234375 C237.16663754 814.75647894 238.7155623 813.37280903 240.27734375 812.00390625 C245.77081293 807.1685565 251.00447349 802.10088031 256.1875 796.9375 C256.85281738 796.2767749 257.51813477 795.6160498 258.20361328 794.93530273 C262.0730494 791.05384376 265.76528775 787.06818228 269.3449707 782.91821289 C270.87806673 781.14132316 272.43347862 779.38802842 274 777.640625 C336.80423401 706.96767118 375.28101255 613.1261745 382 519 C382.05639648 518.21898926 382.11279297 517.43797852 382.17089844 516.63330078 C387.22801075 442.76654497 373.30800268 368.04396298 342 301 C341.55156738 300.02240723 341.10313477 299.04481445 340.64111328 298.03759766 C325.40583859 264.82941698 305.81285149 233.83817936 282.44726562 205.75146484 C280.45374408 203.33892713 278.51398929 200.88408935 276.5625 198.4375 C267.43602644 187.33773486 257.25834987 177.17059179 247.125 167 C246.24553711 166.11586426 245.36607422 165.23172852 244.45996094 164.32080078 C239.46699195 159.34012975 234.36735888 154.57323139 229 150 C228.03578125 149.154375 227.0715625 148.30875 226.078125 147.4375 C202.18997166 126.84881536 175.6964007 109.03673602 148 94 C147.17967285 93.54608887 146.3593457 93.09217773 145.51416016 92.62451172 C85.5670639 59.50048496 16.26395596 42.56389361 -52 41 C-52.80791992 40.97808594 -53.61583984 40.95617188 -54.44824219 40.93359375 C-121.57316557 39.30763678 -188.04549739 54.34075161 -249 82 C-249.76747559 82.34385742 -250.53495117 82.68771484 -251.32568359 83.04199219 C-283.52127065 97.49656668 -313.6188117 116.79810331 -341 139 C-342.42505859 140.13501953 -342.42505859 140.13501953 -343.87890625 141.29296875 C-349.7989997 146.0509386 -355.42599998 151.05274964 -360.98046875 156.2265625 C-363.21977265 158.30697003 -365.51283884 160.313207 -367.828125 162.30859375 C-372.25888422 166.17047185 -376.41901269 170.27151411 -380.5625 174.4375 C-381.27857422 175.14970703 -381.99464844 175.86191406 -382.73242188 176.59570312 C-387.36161482 181.23332044 -391.7354893 186.02700003 -396 191 C-396.94953712 192.08289461 -397.90000793 193.16497147 -398.8515625 194.24609375 C-435.21273273 235.93046668 -463.44171587 284.93461849 -482 337 C-482.35255859 337.97678711 -482.70511719 338.95357422 -483.06835938 339.95996094 C-518.97873972 440.24626701 -517.20578354 555.81001247 -470 662 C-469.56961426 662.94439941 -469.13922852 663.88879883 -468.69580078 664.86181641 C-448.42257042 709.14420426 -420.74057467 751.38820414 -389.62890625 788.85546875 C-388 791 -388 791 -388 793 C-390.99548288 793.85016724 -393.99696463 794.67694586 -397 795.5 C-397.83917969 795.73847656 -398.67835938 795.97695313 -399.54296875 796.22265625 C-410.53216169 799.20422023 -418.73786483 797.9150617 -428.796875 792.4921875 C-438.6595614 786.50213785 -446.64053257 778.80998487 -454 770 C-454.78632813 769.10152344 -455.57265625 768.20304688 -456.3828125 767.27734375 C-508.87358696 707.04491317 -538.39324374 630.49205188 -549 552 C-549.16371094 550.86868652 -549.32742188 549.73737305 -549.49609375 548.57177734 C-555.09010495 508.65665815 -554.87539179 463.85048344 -549 424 C-548.80403622 422.60425795 -548.60875328 421.20842019 -548.4140625 419.8125 C-536.42907484 335.01541458 -502.53329793 252.05936475 -449 185 C-448.4961377 184.36610352 -447.99227539 183.73220703 -447.47314453 183.07910156 C-441.34063196 175.38260486 -435.1215883 167.83025739 -428.4140625 160.625 C-426.55583667 158.60440492 -424.76949463 156.55909658 -422.98828125 154.47265625 C-418.31300526 149.11205874 -413.26672603 144.11707788 -408.23022461 139.09985352 C-406.56573723 137.4407268 -404.90666553 135.77631949 -403.24804688 134.11132812 C-397.67110962 128.530587 -392.02637063 123.0983248 -386 118 C-384.91647912 117.05117758 -383.83439972 116.10070602 -382.75390625 115.1484375 C-373.80965121 107.34742265 -364.50049471 100.10807509 -355 93 C-354.3591748 92.51644043 -353.71834961 92.03288086 -353.05810547 91.53466797 C-311.33126526 60.06834799 -263.63012311 36.09720813 -214 20 C-213.09185547 19.70287109 -212.18371094 19.40574219 -211.24804688 19.09960938 C-183.38367563 10.06091934 -154.9685563 4.08658242 -126 0 C-124.72962891 -0.18079102 -123.45925781 -0.36158203 -122.15039062 -0.54785156 C-82.35322844 -5.88028965 -39.75856894 -5.44965675 0 0 Z " fill="#040404" transform="translate(552,3)"/>
<path d="M0 0 C38.52590868 14.74620375 38.52590868 14.74620375 52 27 C52.64195312 27.53882813 53.28390625 28.07765625 53.9453125 28.6328125 C63.75559507 37.42384494 67.33736702 50.56189043 68.14794922 63.33056641 C69.82030554 104.88986893 56.90266789 150.69571704 29.4375 182.5 C22.75973468 189.57890317 16.41940509 195.33204438 6.43359375 196.37109375 C-15.26766917 196.7317208 -35.66383179 188.78907984 -56 182 C-56 177.51020408 -56 177.51020408 -53.796875 174.62890625 C-53.31710205 173.98332764 -52.8373291 173.33774902 -52.34301758 172.67260742 C-51.81732178 171.97627197 -51.29162598 171.27993652 -50.75 170.5625 C-17.77757532 125.2642115 -3.24630339 68.79849276 -1.34106445 13.38256836 C-1.30972412 12.50737549 -1.27838379 11.63218262 -1.24609375 10.73046875 C-1.22216553 9.96114014 -1.1982373 9.19181152 -1.17358398 8.39916992 C-0.96810472 5.55916329 -0.50199912 2.80133213 0 0 Z " fill="#050505" transform="translate(643,145)"/>
<path d="M0 0 C4.24035444 0.54616372 6.67807028 1.92722084 10.0625 4.5 C11.02414062 5.22574219 11.98578125 5.95148437 12.9765625 6.69921875 C13.97429687 7.45847656 14.97203125 8.21773437 16 9 C17.46566406 10.06154297 17.46566406 10.06154297 18.9609375 11.14453125 C31.77964247 20.48098959 47.88786227 32.35299913 51 49 C53.64205568 85.51234321 31.41184644 118.8604582 8.796875 145.60546875 C6.57642427 148.11745348 4.3081754 150.56837275 2 153 C1.53835449 153.48887695 1.07670898 153.97775391 0.60107422 154.48144531 C-12.53476786 168.30636654 -27.48913679 179.73047278 -47.1875 180.375 C-65.87561664 180.00748542 -83.64992125 169.48201392 -99.3125 160 C-100.08940186 159.53134521 -100.86630371 159.06269043 -101.66674805 158.57983398 C-103.48390233 157.44746476 -105.24865917 156.23171224 -107 155 C-107 154.34 -107 153.68 -107 153 C-105.2808104 151.58084349 -103.4962319 150.24061434 -101.6875 148.9375 C-100.57548232 148.1229207 -99.46483347 147.3064699 -98.35546875 146.48828125 C-97.50927979 145.86493896 -97.50927979 145.86493896 -96.64599609 145.22900391 C-79.39687101 132.3497254 -63.26299642 116.94973843 -50 100 C-49.13190288 98.93221387 -48.2620312 97.86586861 -47.390625 96.80078125 C-24.51646438 68.63292124 -8.59391733 35.19822277 0 0 Z " fill="#060606" transform="translate(434,643)"/>
<path d="M0 0 C0.66 0.33 1.32 0.66 2 1 C-4.6 7.6 -11.2 14.2 -18 21 C-18.66 20.67 -19.32 20.34 -20 20 C-7.23404255 5.85106383 -7.23404255 5.85106383 0 0 Z " fill="#6A6A6A" transform="translate(485,144)"/>
</svg>
